<svg xmlns="http://www.w3.org/2000/svg" viewBox="0 0 128 128" role="img" aria-label="System Design MLE logo">
  <defs>
    <linearGradient id="g" x1="16" y1="12" x2="116" y2="118" gradientUnits="userSpaceOnUse">
      <stop offset="0" stop-color="#22d3ee"/>
      <stop offset="0.48" stop-color="#a78bfa"/>
      <stop offset="1" stop-color="#34d399"/>
    </linearGradient>
    <filter id="s" x="-20%" y="-20%" width="140%" height="140%">
      <feDropShadow dx="0" dy="8" stdDeviation="8" flood-color="#000" flood-opacity="0.4"/>
    </filter>
  </defs>
  <rect x="10" y="10" width="108" height="108" rx="24" fill="#0b1020"/>
  <!-- Elegant vector Path for letter "S" styled with dynamic engineering folds -->
  <path d="M42 36h44c6.6 0 12 5.4 12 12s-5.4 12-12 12H54c-2.2 0-4 1.8-4 4s1.8 4 4 4h32c6.6 0 12 5.4 12 12s-5.4 12-12 12H42c-6.6 0-12-5.4-12-12s5.4-12 12-12h32c2.2 0 4-1.8 4-4s-1.8-4-4-4H42c-6.6 0-12-5.4-12-12s5.4-12 12-12z" fill="url(#g)" filter="url(#s)"/>
  <circle cx="94" cy="34" r="7" fill="#34d399"/>
  <circle cx="34" cy="94" r="5" fill="#22d3ee"/>
</svg>
