<svg xmlns="http://www.w3.org/2000/svg" viewBox="0 0 64 64" role="img" aria-labelledby="title desc">
  <title id="title">AI Infrastructure logo</title>
  <desc id="desc">A compact infrastructure node icon for the AI Infrastructure learning reader.</desc>
  <rect width="64" height="64" rx="18" fill="#07111f"/>
  <path d="M16 13h32c3.866 0 7 3.134 7 7v24c0 3.866-3.134 7-7 7H16c-3.866 0-7-3.134-7-7V20c0-3.866 3.134-7 7-7Z" fill="none" stroke="#67e8f9" stroke-width="4"/>
  <path d="M20 28h24M20 38h24" stroke="#86efac" stroke-width="4" stroke-linecap="round"/>
  <circle cx="20" cy="28" r="4" fill="#fef3c7"/>
  <circle cx="44" cy="28" r="4" fill="#67e8f9"/>
  <circle cx="20" cy="38" r="4" fill="#86efac"/>
  <circle cx="44" cy="38" r="4" fill="#fdba74"/>
  <path d="M32 13V6M32 58v-7M9 32H3M61 32h-6" stroke="#c4b5fd" stroke-width="4" stroke-linecap="round"/>
</svg>
